<?xml version="1.0" standalone="no"?>
<!DOCTYPE svg PUBLIC "-//W3C//DTD SVG 20010904//EN"
 "http://www.w3.org/TR/2001/REC-SVG-20010904/DTD/svg10.dtd">
<svg version="1.0" xmlns="http://www.w3.org/2000/svg"
 width="300.000000pt" height="305.000000pt" viewBox="0 0 300.000000 305.000000"
 preserveAspectRatio="xMidYMid meet">
<metadata>
Created by potrace 1.10, written by Peter Selinger 2001-2011
</metadata>
<g transform="translate(0.000000,305.000000) scale(0.100000,-0.100000)"
fill="#000000" stroke="none">
<path d="M1297 3030 c-427 -67 -803 -306 -1045 -666 -138 -206 -243 -527 -241
-738 1 -111 11 -72 63 231 1 7 5 16 9 19 4 4 7 17 7 28 0 31 53 174 102 274
88 184 199 326 375 481 73 64 84 71 97 64 5 -3 6 -2 3 4 -3 5 20 25 51 43 31
19 64 39 72 45 8 6 47 25 85 42 39 17 90 40 116 51 52 24 262 78 335 88 123
15 241 20 289 11 17 -3 53 -8 81 -12 28 -3 74 -12 102 -19 28 -8 53 -11 56 -8
3 3 6 0 6 -6 0 -7 7 -12 15 -12 8 0 15 -4 15 -9 0 -10 -19 -9 -37 2 -7 5 -17
6 -21 3 -5 -3 -25 -1 -45 5 -60 16 -95 19 -222 18 -158 0 -175 -2 -175 -11 0
-4 64 -8 143 -8 380 0 721 -142 993 -414 214 -215 348 -473 399 -770 19 -113
19 -328 0 -474 -19 -146 -9 -168 29 -59 26 75 29 97 34 264 3 143 1 204 -13
285 -76 457 -380 864 -800 1072 -60 30 -129 61 -153 69 -23 7 -40 16 -37 19 7
6 -78 48 -98 48 -7 0 -17 4 -23 9 -33 30 -433 52 -567 31z"/>
<path d="M1219 2938 c-87 -16 -159 -38 -159 -47 0 -5 -11 -7 -25 -6 -14 2 -23
-1 -19 -6 3 -5 -1 -9 -9 -9 -20 0 -154 -67 -162 -80 -4 -6 19 2 52 18 70 35
181 77 246 93 26 6 47 14 47 18 0 3 21 7 47 9 26 1 51 6 55 10 9 9 -28 9 -73
0z"/>
<path d="M1380 2931 c-97 -10 -210 -35 -308 -68 -108 -36 -282 -126 -334 -174
-24 -21 -57 -46 -74 -54 -17 -8 -37 -21 -44 -30 -7 -8 -19 -15 -28 -15 -8 0
-13 -2 -10 -5 3 -3 -28 -38 -68 -77 -41 -39 -74 -77 -74 -84 0 -6 -7 -14 -15
-18 -8 -3 -15 -10 -15 -16 0 -6 -23 -44 -50 -85 -28 -41 -48 -75 -44 -75 4 0
0 -8 -8 -17 -15 -17 -50 -80 -54 -95 -1 -5 -3 -10 -4 -13 -1 -3 -3 -8 -5 -12
-1 -5 -7 -21 -14 -38 -39 -92 -78 -229 -95 -330 -23 -132 4 -449 49 -588 13
-39 21 -75 19 -79 -3 -4 0 -8 5 -8 6 0 11 -5 11 -12 0 -6 27 -66 60 -133 59
-120 102 -184 190 -282 25 -28 54 -61 66 -74 37 -42 97 -94 149 -129 28 -18
52 -36 55 -40 6 -7 159 -100 165 -100 2 0 29 -11 59 -25 30 -14 57 -25 60 -25
2 0 17 -5 33 -12 41 -17 146 -46 243 -67 66 -14 128 -18 280 -18 107 0 202 3
210 7 8 4 49 10 90 14 143 11 209 26 287 62 43 20 92 46 108 58 17 13 38 25
47 29 59 21 338 267 338 297 0 6 5 8 10 5 6 -3 10 1 10 9 0 9 5 16 11 16 5 0
15 13 20 30 6 16 15 27 20 24 5 -3 9 1 9 8 0 14 39 68 40 55 1 -27 -165 -241
-212 -273 -15 -10 -24 -22 -22 -26 3 -4 2 -8 -3 -8 -4 0 -31 -21 -58 -47 -55
-51 -221 -163 -243 -163 -7 0 -10 -4 -7 -10 3 -5 -2 -10 -12 -10 -11 0 -23 -4
-28 -9 -12 -12 -172 -81 -200 -87 -11 -2 -72 -17 -135 -33 -63 -15 -146 -34
-185 -41 -100 -18 -113 -29 -34 -30 211 -1 512 101 734 248 147 98 322 276
424 432 57 88 122 225 160 339 35 104 36 131 2 49 -12 -29 -26 -60 -31 -69 -5
-10 -21 -46 -35 -80 -32 -77 -75 -153 -82 -145 -3 3 4 20 15 38 28 45 64 130
52 123 -6 -3 -10 -1 -10 5 0 15 -57 -60 -103 -137 -105 -174 -268 -346 -429
-453 -115 -77 -263 -149 -319 -156 -24 -3 -102 -14 -174 -25 -161 -23 -391
-25 -525 -4 -311 51 -609 216 -816 453 -95 109 -141 175 -199 290 -162 323
-189 701 -74 1045 115 348 375 640 714 802 212 102 475 149 695 125 317 -34
579 -147 808 -349 195 -172 372 -461 385 -627 3 -33 12 -88 20 -124 16 -69 35
-212 35 -270 1 -54 -26 -258 -37 -278 -5 -9 -11 -37 -15 -61 -3 -24 -10 -49
-15 -55 -5 -6 -20 -45 -34 -86 -14 -41 -41 -102 -61 -135 -20 -33 -44 -77 -53
-98 -9 -20 -20 -37 -25 -37 -4 0 -8 -7 -8 -15 0 -7 -6 -18 -13 -22 -7 -4 -21
-21 -31 -36 -39 -63 -237 -246 -258 -239 -4 1 -8 -2 -8 -7 0 -11 -104 -80
-170 -113 -14 -7 -42 -23 -62 -35 -21 -13 -43 -23 -50 -23 -7 0 -35 -11 -63
-24 -27 -14 -53 -23 -56 -20 -4 2 -12 -3 -19 -11 -19 -23 6 -19 106 16 180 63
393 204 525 347 284 309 415 724 354 1127 -8 54 -22 124 -29 155 -8 30 -22 87
-31 125 -39 164 -195 418 -341 554 -201 189 -414 299 -695 361 -99 21 -309 32
-419 21z"/>
<path d="M1703 2703 c10 -34 42 -118 47 -123 3 -3 6 -12 8 -20 6 -27 60 -114
103 -165 23 -27 39 -42 36 -32 -4 9 -2 17 4 17 6 0 8 4 5 9 -4 5 3 7 14 4 11
-3 22 -9 25 -13 3 -5 13 -6 23 -4 12 4 24 -9 44 -43 25 -46 108 -143 122 -143
10 0 7 26 -8 55 -11 21 -15 23 -18 10 -2 -11 -16 4 -43 46 -52 82 -74 129 -97
209 -10 36 -16 50 -13 33 2 -18 0 -33 -5 -33 -6 0 -10 8 -10 18 0 10 -6 38
-14 63 -8 24 -18 58 -21 74 -4 17 -9 25 -12 18 -7 -20 25 -188 47 -243 27 -68
26 -70 -12 -30 -44 49 -87 118 -98 160 -5 20 -17 44 -26 55 -14 18 -15 18 -10
2 29 -92 13 -85 -44 18 -40 72 -58 94 -47 58z"/>
<path d="M1062 2640 c-82 -22 -173 -67 -179 -90 -2 -8 -27 -30 -54 -49 -27
-19 -71 -57 -97 -86 -57 -63 -135 -192 -126 -207 5 -7 2 -8 -6 -3 -9 6 -10 2
-5 -15 4 -14 3 -20 -3 -16 -5 3 -13 -11 -17 -32 -4 -20 -17 -59 -30 -87 -23
-49 -23 -52 -9 -120 27 -128 30 -140 41 -159 11 -20 7 76 -6 129 -12 51 -6
141 12 169 9 14 17 36 17 50 0 14 4 27 9 30 4 3 14 26 21 51 7 24 16 42 21 39
9 -5 11 0 13 29 1 6 4 17 9 22 4 6 16 22 28 38 11 15 28 27 37 27 16 0 81 34
92 49 3 3 21 15 40 25 19 11 44 28 54 38 11 10 23 19 28 19 18 3 24 5 53 21
40 20 85 31 85 19 0 -5 -10 -13 -22 -16 -47 -13 -78 -28 -73 -35 13 -22 118
31 108 56 -4 10 3 14 25 14 17 0 32 4 34 10 2 5 45 13 96 16 77 4 105 2 165
-16 83 -25 128 -45 156 -71 21 -20 87 -52 113 -54 22 -3 49 -25 43 -35 -6 -9
80 -90 95 -90 16 0 5 14 -45 62 -29 28 -40 45 -32 50 7 4 30 -13 58 -45 36
-39 50 -49 59 -41 9 9 2 18 -27 40 -21 15 -63 52 -95 82 -36 35 -60 52 -69 47
-7 -5 -10 -4 -5 3 8 14 -46 55 -120 91 -64 30 -164 39 -234 22 -35 -9 -34 -9
15 -10 122 -3 226 -40 323 -113 104 -80 42 -60 -90 28 -102 69 -321 90 -460
45 -38 -13 -70 -27 -74 -32 -3 -5 -13 -9 -22 -9 -13 0 -12 5 8 20 14 11 22 20
18 20 -19 0 -222 -135 -272 -181 -19 -18 -36 -25 -36 -14 0 7 87 85 128 116
59 43 186 103 190 90 2 -6 11 -11 20 -11 15 0 15 2 2 10 -11 7 -6 13 25 26 40
16 79 21 183 23 33 1 51 5 47 11 -4 6 -30 8 -63 5 -40 -3 -50 -2 -32 4 51 18
-94 10 -168 -9z"/>
<path d="M836 2567 c-131 -80 -288 -302 -311 -442 -4 -26 4 -12 23 42 35 99
73 166 131 235 52 62 146 145 193 170 18 9 26 17 18 18 -8 0 -32 -11 -54 -23z"/>
<path d="M499 2538 c-31 -34 -41 -61 -11 -31 33 34 55 63 48 63 -4 0 -20 -15
-37 -32z"/>
<path d="M1180 2478 c-25 -6 -60 -10 -78 -9 -21 1 -35 -4 -38 -14 -4 -8 -16
-15 -29 -15 -25 0 -54 -14 -102 -48 -19 -14 -34 -18 -38 -12 -3 6 7 18 24 28
17 9 31 21 31 26 0 5 -6 3 -13 -3 -8 -6 -16 -9 -19 -6 -3 3 -17 -6 -32 -20
-15 -14 -32 -25 -39 -25 -7 0 -7 -4 2 -12 11 -10 14 -10 18 0 6 16 23 16 23
-1 0 -8 -11 -20 -25 -27 -14 -7 -25 -21 -25 -30 0 -9 -11 -31 -25 -50 -14 -19
-25 -37 -25 -41 0 -4 -5 -20 -11 -36 -6 -15 -13 -71 -16 -123 -4 -83 -1 -105
21 -170 13 -41 23 -77 20 -79 -12 -12 -54 46 -63 88 -20 92 -23 141 -9 146 8
4 14 28 16 72 1 36 7 72 13 80 8 9 8 13 1 13 -12 0 -34 -34 -30 -47 4 -21 -16
-106 -29 -118 -8 -8 -12 -18 -10 -22 3 -5 8 -37 11 -72 10 -93 34 -133 98
-163 80 -37 181 -37 292 1 47 15 99 27 116 26 17 -2 30 2 30 9 0 7 3 7 8 1 4
-5 17 -11 30 -11 42 -2 4 24 -41 28 -43 5 -191 -34 -202 -52 -3 -5 -29 -8 -57
-5 -67 5 -99 36 -127 121 -11 35 -21 72 -22 82 -1 10 -4 7 -8 -8 -4 -14 -15
-27 -25 -28 -18 -4 -19 2 -13 97 3 56 9 106 13 112 3 6 16 8 28 5 20 -5 20 -4
3 9 -18 13 -18 15 8 60 27 46 28 46 46 26 18 -19 18 -21 -16 -77 -23 -38 -35
-70 -34 -93 0 -33 2 -31 23 29 12 36 30 77 40 92 17 27 17 28 -4 55 l-21 28
21 17 c27 22 39 23 46 3 4 -8 10 -15 15 -15 5 0 3 10 -6 23 -14 22 -13 25 7
43 13 11 34 25 48 31 22 9 27 8 37 -13 10 -21 7 -25 -29 -49 -22 -15 -37 -29
-35 -32 3 -3 21 6 39 20 18 13 42 29 54 35 30 16 161 42 208 42 64 0 156 -39
204 -87 23 -23 42 -38 42 -34 0 18 -49 67 -84 86 -28 15 -36 26 -36 47 0 15 4
29 10 33 10 6 71 -17 108 -41 l24 -16 -23 -24 c-12 -13 -20 -27 -16 -30 3 -4
17 7 31 22 23 27 26 28 41 13 15 -15 14 -19 -5 -52 -17 -29 -19 -40 -10 -57 6
-11 8 -25 5 -30 -4 -6 -1 -9 6 -8 7 2 13 -2 14 -9 0 -23 138 -133 151 -120 6
5 -20 57 -28 57 -5 0 -8 6 -8 13 0 7 -18 25 -40 40 -43 28 -53 26 -18 -4 11
-11 19 -21 16 -24 -2 -2 -20 9 -39 25 -28 24 -31 31 -19 39 12 8 9 12 -13 20
-33 13 -33 15 -3 48 l24 26 31 -44 c52 -74 95 -128 99 -124 7 7 -19 65 -29 65
-5 0 -9 5 -9 11 0 22 -87 122 -153 176 -9 7 -44 24 -79 39 -72 30 -211 41
-288 22z m98 -35 c-2 -22 -9 -29 -29 -31 -21 -2 -27 2 -31 22 -4 19 0 26 16
29 44 9 47 8 44 -20z m89 17 c19 0 22 -5 21 -36 -1 -31 -4 -35 -22 -29 -12 4
-31 9 -43 12 -21 5 -37 38 -26 56 3 5 15 6 27 3 11 -3 31 -6 43 -6z m-167 -20
c0 -11 0 -23 0 -27 1 -5 -12 -11 -29 -14 -21 -4 -32 -2 -35 8 -10 25 -7 33 17
43 35 14 47 12 47 -10z m-83 -23 c10 -21 8 -25 -21 -35 -26 -10 -33 -10 -43 5
-18 23 -16 28 10 41 33 16 43 14 54 -11z m-294 -484 c3 -5 8 -23 12 -40 5 -27
3 -33 -9 -33 -16 0 -36 37 -36 66 0 14 25 20 33 7z m52 -113 l29 -30 -32 0
c-21 0 -35 6 -42 19 -26 49 2 56 45 11z"/>
<path d="M519 2423 c-19 -21 -43 -49 -54 -63 -10 -14 7 2 38 35 31 33 57 61
57 62 0 7 -9 0 -41 -34z"/>
<path d="M1936 2245 c4 -8 10 -13 14 -10 5 3 11 1 15 -5 4 -6 11 -8 16 -4 6 3
3 12 -8 20 -24 18 -44 18 -37 -1z"/>
<path d="M2154 2216 c-6 -20 -8 -36 -4 -36 3 0 7 -19 9 -42 1 -23 7 -48 13
-55 16 -19 69 -31 102 -22 23 7 29 5 33 -11 3 -11 10 -20 15 -20 15 0 -23 -57
-52 -79 -35 -25 -63 -12 -37 17 9 10 17 25 16 33 0 8 -4 4 -9 -8 -6 -14 -15
-21 -24 -17 -15 6 -11 34 5 34 5 0 9 6 9 12 0 7 -9 3 -21 -9 l-21 -21 -41 24
c-22 12 -44 21 -49 18 -4 -3 -8 0 -8 7 0 8 -4 8 -12 1 -12 -10 -35 -7 -118 13
-32 8 -65 -19 -73 -61 -5 -26 -2 -33 19 -44 13 -7 24 -17 24 -22 0 -4 11 -8
24 -8 30 0 59 -27 51 -48 -6 -17 21 -52 40 -52 24 0 57 -34 50 -53 -4 -9 -13
-17 -20 -17 -7 0 -15 -3 -18 -7 -2 -5 -2 -3 -1 4 2 7 -6 15 -17 18 -10 4 -19
11 -19 17 0 6 -3 8 -7 5 -3 -4 -11 -3 -17 2 -7 6 -24 12 -40 15 -16 3 -40 15
-53 28 -20 18 -38 23 -97 26 -56 3 -73 1 -73 -9 0 -10 14 -14 41 -14 24 0 65
-12 97 -28 31 -15 66 -27 77 -27 12 0 27 -10 33 -22 8 -14 14 -18 17 -10 6 19
22 14 31 -10 7 -18 16 -23 49 -23 41 0 59 15 46 37 -4 6 0 14 7 19 11 6 11 11
1 21 -6 6 -12 21 -12 32 0 16 -2 18 -9 7 -11 -16 -31 -6 -31 16 0 14 -2 14
-19 -1 -17 -15 -19 -15 -25 -1 -3 9 -10 13 -16 10 -5 -3 -10 -1 -10 4 0 6 4
11 9 11 15 0 41 48 35 64 -3 9 -10 13 -15 10 -5 -3 -34 -2 -64 1 -41 6 -56 12
-60 26 -10 30 4 58 31 65 38 10 42 -4 9 -32 l-30 -25 30 6 c17 4 37 13 46 21
19 17 36 18 42 2 3 -10 9 -10 27 0 18 11 25 11 46 -3 13 -8 24 -22 24 -31 0
-12 7 -14 29 -9 36 8 49 -10 19 -26 -35 -18 -47 -40 -48 -81 0 -78 65 -99 166
-53 62 28 125 33 144 10 9 -11 11 -42 6 -118 -7 -95 -6 -104 14 -124 29 -32
63 -38 97 -18 l28 16 -30 -6 c-59 -13 -73 -9 -91 27 -14 28 -15 40 -4 97 15
80 4 131 -31 148 -36 19 -67 15 -144 -16 -82 -33 -117 -28 -134 20 -9 25 -7
33 15 57 17 17 24 21 20 10 -8 -26 9 -22 23 5 l12 22 -5 -22 c-5 -28 8 -29 36
-3 12 10 25 17 30 14 4 -3 8 1 8 9 0 15 27 32 44 28 5 -1 6 5 3 14 -4 9 -1 15
8 15 18 0 20 16 3 24 -10 5 -10 7 0 12 19 9 14 24 -9 24 -19 0 -19 1 -5 22 9
12 16 38 16 58 0 51 24 80 65 80 26 0 39 -6 52 -26 14 -23 15 -33 5 -84 -14
-67 -4 -101 34 -119 21 -9 27 -7 47 16 46 56 77 85 89 81 7 -3 16 -20 21 -39
5 -19 12 -28 14 -21 10 25 -18 72 -42 72 -22 0 -95 -71 -95 -92 0 -17 -40 -7
-51 13 -8 16 -8 36 1 78 19 90 -7 131 -84 131 -47 0 -76 -37 -76 -97 0 -39 -2
-44 -17 -38 -43 18 -56 18 -69 0 -12 -16 -14 -17 -20 -2 -3 10 -10 17 -16 17
-5 0 -6 -4 -3 -10 7 -12 -5 -13 -22 -2 -11 7 -5 61 12 107 8 20 8 20 -9 0 -16
-19 -17 -19 -11 15 3 25 2 29 -4 15 -8 -19 -9 -19 -12 3 -4 21 -5 19 -15 -12z"/>
<path d="M2032 2209 c-40 -63 36 -161 84 -108 15 17 15 23 4 47 -7 15 -13 31
-11 35 1 5 -3 6 -9 2 -5 -3 -10 -2 -10 3 0 5 -10 17 -23 25 -21 14 -24 13 -35
-4z m39 -33 c12 -26 13 -38 5 -47 -7 -9 -5 -8 7 0 20 16 32 9 24 -14 -8 -19
-31 -19 -47 0 -15 18 -26 95 -13 95 5 0 16 -16 24 -34z"/>
<path d="M1520 2183 c0 -41 90 -118 153 -130 18 -3 37 -9 42 -14 7 -5 11 0 12
12 1 13 -7 24 -25 31 -15 5 -42 17 -61 24 -40 17 -56 10 -17 -7 14 -7 26 -16
26 -21 0 -5 -10 -4 -22 3 -32 16 -88 71 -88 85 0 7 -4 16 -10 19 -5 3 -10 3
-10 -2z"/>
<path d="M1066 2140 c-41 -36 -69 -102 -64 -151 3 -31 6 -34 43 -39 41 -5 39
-16 -5 -20 -41 -4 -46 -1 -58 25 -16 35 -14 94 3 125 18 32 19 46 1 31 -18
-15 -40 -96 -31 -112 5 -8 4 -10 -3 -5 -8 5 -12 -4 -12 -28 0 -27 6 -40 26
-52 22 -15 32 -16 97 -4 88 16 116 14 140 -12 11 -10 24 -17 30 -15 7 3 27 -7
46 -21 l34 -25 -7 26 c-5 23 -3 27 14 27 11 0 23 -7 26 -15 4 -8 10 -13 15
-10 4 3 13 -4 19 -15 6 -11 15 -18 19 -15 5 2 11 -9 15 -26 5 -27 8 -30 21
-19 25 21 17 37 -46 90 -72 60 -97 73 -169 90 -30 7 -63 17 -72 22 -14 7 -16
5 -11 -8 4 -12 3 -15 -5 -10 -18 11 -14 51 7 70 11 10 41 21 68 26 51 8 34 14
-31 11 -45 -3 -91 -23 -99 -45 -3 -8 3 -22 14 -32 27 -24 24 -36 -8 -32 -59 7
-61 88 -4 153 48 55 41 62 -13 15z m225 -210 c20 -11 26 -30 9 -30 -6 0 -20 9
-32 20 -23 21 -10 27 23 10z"/>
<path d="M1530 2066 c28 -32 113 -76 146 -76 14 0 24 8 27 21 5 19 2 21 -36
17 -42 -5 -76 8 -137 49 l-25 17 25 -28z"/>
<path d="M1415 2024 c80 -67 268 -121 335 -96 14 5 34 6 45 2 19 -7 18 -8 -5
-12 -16 -3 -7 -6 22 -7 51 -1 78 -20 31 -22 -24 -1 -22 -2 11 -10 22 -5 45
-14 53 -20 8 -8 13 -8 13 -1 0 6 -13 21 -29 35 -17 14 -27 28 -24 31 6 6 -13
9 -20 4 -2 -2 -16 5 -31 16 -20 13 -39 17 -64 12 -20 -3 -41 -1 -47 4 -6 5
-27 5 -49 0 -27 -6 -50 -4 -78 6 -22 8 -44 12 -48 9 -10 -6 -76 29 -106 56
-11 10 -24 19 -30 19 -5 -1 5 -12 21 -26z"/>
<path d="M590 1826 c0 -32 62 -154 82 -159 15 -4 16 -2 7 15 -6 11 35 -27 91
-84 73 -74 103 -99 109 -90 7 11 26 8 96 -13 68 -21 93 -25 110 -17 24 11 61
6 82 -10 7 -5 14 -5 18 2 4 7 12 7 25 0 14 -8 30 -6 57 6 42 18 79 20 98 4 13
-11 136 9 193 31 37 14 99 2 161 -33 29 -16 54 -28 56 -26 4 3 -40 45 -53 50
-4 2 -6 8 -4 13 2 6 0 7 -4 3 -4 -4 -21 0 -38 10 -30 17 -76 20 -126 9 -14 -3
-56 -12 -93 -21 -50 -12 -74 -13 -88 -6 -11 6 -17 15 -14 21 8 13 -8 11 -95
-7 -103 -22 -200 -29 -200 -16 0 17 64 31 173 38 53 3 95 10 92 14 -3 5 -49 9
-103 9 -93 0 -152 -12 -152 -30 0 -5 -7 -9 -16 -9 -8 0 -12 -5 -9 -10 7 -12
-21 -8 -105 15 -30 8 -56 12 -59 10 -2 -3 -25 14 -50 38 -26 23 -71 62 -100
87 -76 63 -101 90 -101 109 0 9 -9 27 -20 41 -17 22 -20 23 -20 6z"/>
<path d="M1580 1798 c-52 -5 -113 -13 -134 -19 -62 -17 -24 -31 59 -23 39 4
82 8 97 9 15 1 34 8 43 15 12 10 39 11 108 7 64 -4 85 -3 68 4 -36 14 -134 17
-241 7z"/>
<path d="M414 1766 c-10 -30 -6 -86 6 -102 8 -9 8 -18 1 -33 -6 -11 -11 -35
-10 -53 l1 -33 10 35 c12 41 27 62 39 54 5 -3 12 8 15 25 9 41 20 39 35 -6 9
-28 9 -38 0 -41 -6 -2 -9 -8 -5 -13 3 -5 0 -9 -6 -9 -7 0 -9 8 -4 23 7 22 6
22 -14 4 -11 -11 -28 -34 -36 -52 -17 -36 -20 -128 -5 -160 7 -15 8 -7 5 29
-5 58 4 86 38 123 l24 26 -5 -87 c-6 -91 9 -192 33 -223 13 -17 14 -17 8 0 -4
10 -3 17 2 16 15 -4 84 42 95 63 9 16 13 17 27 6 9 -7 14 -9 10 -4 -4 5 3 17
15 26 26 22 17 36 -12 20 -38 -20 -73 7 -94 70 -17 51 -18 60 -4 118 17 70 12
101 -25 154 -12 18 -24 35 -26 38 -2 2 -27 5 -57 6 -47 1 -55 -1 -61 -20z
m114 -31 c9 -20 9 -25 -1 -25 -7 0 -19 6 -26 13 -10 10 -18 5 -42 -23 -16 -19
-29 -28 -29 -20 0 8 -3 25 -6 38 -5 18 -2 22 17 22 13 0 31 5 39 10 24 15 36
12 48 -15z m36 -79 c-2 -6 -5 -28 -7 -49 -5 -44 -14 -57 -27 -37 -6 9 -5 19 0
24 6 6 10 26 10 46 0 20 3 40 7 43 9 9 22 -13 17 -27z m-19 -158 c10 -44 54
-118 70 -118 16 0 14 -22 -4 -44 -13 -16 -53 -17 -68 -3 -9 10 -20 197 -11
197 3 0 10 -15 13 -32z"/>
<path d="M1722 1770 c5 -15 138 -22 138 -8 0 5 -24 8 -54 8 -30 0 -62 3 -72 7
-11 4 -15 2 -12 -7z"/>
<path d="M1651 1743 c-1 -19 -7 -23 -36 -23 -22 0 -35 5 -35 13 0 16 -35 15
-195 -8 -132 -18 -135 -19 -185 -31 -33 -7 -34 -8 -10 -14 14 -3 36 -3 50 1
41 13 322 51 327 45 7 -7 -11 -13 -52 -20 -16 -3 -70 -12 -119 -21 -49 -9 -95
-14 -102 -11 -8 3 -14 1 -14 -4 0 -6 -17 -10 -37 -11 l-38 -1 30 -13 c17 -7
35 -10 40 -5 6 4 35 11 65 16 30 4 57 8 60 9 3 0 11 4 19 9 11 7 12 6 6 -5 -7
-11 -6 -12 6 -3 22 18 96 26 332 37 27 1 51 -1 53 -4 2 -4 32 -10 66 -14 42
-5 85 -20 137 -47 42 -22 84 -41 93 -43 10 -2 27 -13 40 -24 12 -12 31 -21 42
-21 10 0 17 -3 14 -6 -3 -3 16 -26 43 -51 26 -25 51 -54 54 -64 4 -11 11 -17
16 -14 5 4 9 1 9 -4 0 -22 2 -26 16 -42 14 -16 58 -93 87 -154 8 -16 24 -61
35 -100 11 -38 27 -92 35 -120 15 -49 15 -49 16 -15 3 115 -106 369 -205 479
-62 69 -144 131 -228 172 -37 18 -63 35 -57 37 19 6 133 -53 194 -101 32 -25
87 -73 123 -106 35 -34 64 -58 64 -53 -2 29 -145 167 -222 213 -67 40 -136 62
-243 80 -33 6 -73 13 -90 16 -16 3 -66 7 -110 8 -66 3 -80 6 -86 22 -7 16 -8
15 -8 -4z"/>
<path d="M1734 1623 c3 -4 25 -9 48 -12 23 -3 43 -12 46 -20 3 -9 -2 -11 -14
-8 -45 13 -99 18 -84 8 18 -12 12 -19 -22 -23 -48 -7 -39 -14 40 -32 42 -10
91 -27 108 -37 17 -11 40 -19 51 -19 14 0 27 -17 47 -60 15 -33 32 -60 37 -60
13 0 12 6 -12 51 -26 52 -18 62 11 15 26 -42 33 -46 20 -10 -13 32 -13 64 -1
64 6 0 39 -28 75 -62 54 -53 65 -70 71 -108 6 -35 9 -40 15 -25 8 21 2 77 -8
85 -21 16 -45 51 -33 48 20 -5 25 21 6 28 -10 4 -21 1 -26 -7 -7 -12 -9 -12
-9 1 -1 19 -93 67 -98 51 -6 -18 -60 -13 -71 7 -7 12 -10 13 -11 3 0 -11 -4
-11 -18 2 -10 10 -22 14 -25 10 -4 -3 -7 -1 -7 5 0 7 -6 12 -14 12 -20 0 -45
32 -28 37 6 3 12 11 12 18 0 26 -31 45 -72 45 -23 0 -38 -3 -34 -7z"/>
<path d="M2608 1543 c-9 -2 -19 -18 -23 -36 -10 -55 -39 -110 -70 -139 -37
-34 -41 -34 -49 -4 -7 30 -68 137 -75 131 -2 -3 -11 1 -20 8 -9 6 -4 -3 11
-20 15 -18 30 -43 34 -55 3 -12 20 -44 37 -71 24 -40 32 -46 39 -33 10 17 38
22 38 6 0 -5 -9 -14 -21 -20 -11 -7 -18 -14 -15 -17 11 -12 114 48 151 88 l38
41 18 -23 c20 -26 43 -115 33 -130 -3 -5 0 -9 5 -9 16 0 13 74 -5 136 -17 58
-31 74 -46 53 -6 -10 -7 -7 -3 9 11 38 -27 24 -47 -17 -23 -46 -77 -101 -94
-94 -8 3 -11 9 -8 14 3 5 9 7 14 4 10 -6 70 71 70 90 0 14 54 55 73 55 17 0
39 -24 62 -65 l17 -30 -6 34 c-12 70 -86 113 -158 94z"/>
<path d="M2055 1497 c22 -13 49 -26 60 -30 18 -7 19 -6 3 6 -10 8 -14 18 -10
22 4 5 2 5 -5 2 -6 -4 -18 0 -26 8 -9 8 -26 15 -39 15 -19 0 -17 -4 17 -23z"/>
<path d="M10 1417 c0 -151 66 -400 151 -568 153 -306 392 -543 694 -689 195
-95 345 -137 525 -145 114 -6 113 5 -2 25 -99 17 -234 49 -322 77 -101 31
-356 157 -356 175 0 4 -5 8 -11 8 -22 0 -120 82 -230 192 -61 61 -185 223
-209 273 -8 17 -20 37 -26 45 -13 15 -93 193 -100 220 -2 8 -15 53 -28 99 -14
46 -30 109 -35 140 -15 84 -21 122 -28 164 -10 62 -23 53 -23 -16z"/>
<path d="M837 1440 c-70 -18 -160 -81 -136 -96 6 -3 21 3 33 15 12 12 27 21
33 21 6 0 32 10 59 22 41 18 68 22 166 22 64 1 113 4 109 9 -12 12 -222 17
-264 7z"/>
<path d="M986 1406 c34 -7 73 -20 87 -29 15 -9 34 -17 44 -17 10 0 30 -6 45
-14 23 -12 26 -12 21 1 -8 20 19 12 103 -29 70 -34 175 -132 206 -193 11 -22
33 -54 49 -72 15 -18 54 -87 87 -155 32 -68 67 -130 78 -138 18 -14 18 -14 5
3 -8 10 -24 48 -37 85 -34 102 -92 224 -103 217 -6 -3 -22 17 -35 44 -37 73
-116 163 -181 206 -69 45 -208 93 -191 66 8 -12 -30 -3 -81 20 -28 12 -63 19
-100 18 l-58 -1 61 -12z"/>
<path d="M2196 1348 c19 -29 37 -64 40 -78 3 -14 10 -35 15 -48 15 -39 10
-124 -11 -171 -22 -49 -23 -51 -12 -51 4 0 16 15 26 34 23 43 46 54 47 23 0
-21 1 -21 9 -2 16 39 22 -10 10 -72 -15 -69 -39 -119 -74 -152 -35 -33 -33
-42 5 -28 66 25 126 220 83 268 -9 10 -23 19 -31 19 -14 0 -16 7 -13 60 1 20
-5 56 -13 80 -8 25 -18 58 -21 73 -4 15 -11 25 -16 22 -6 -3 -10 0 -10 7 0 15
-46 68 -60 68 -5 0 7 -24 26 -52z"/>
<path d="M2615 1330 c-22 -17 -52 -34 -67 -37 -28 -5 -49 -23 -29 -23 6 0 8
-7 5 -15 -4 -8 -1 -15 5 -15 6 0 11 5 11 10 0 6 8 10 19 10 10 0 30 9 45 21
57 45 71 2 31 -96 -22 -56 -23 -58 -3 -35 11 14 34 52 50 84 25 49 28 65 21
90 -12 42 -40 44 -88 6z"/>
<path d="M2430 1347 c0 -5 6 -21 14 -35 66 -122 90 -203 91 -304 0 -47 3 -84
6 -83 3 2 3 -9 1 -25 -3 -21 -9 -28 -23 -25 -10 2 -18 1 -17 -3 4 -13 -55
-117 -59 -105 -2 6 7 34 22 62 14 28 21 51 15 51 -5 0 -10 -5 -10 -11 0 -5 -5
-7 -10 -4 -6 4 -10 3 -9 -2 1 -4 -7 -28 -18 -53 -45 -98 -237 -260 -308 -260
-20 0 -45 -5 -55 -10 -10 -6 -31 -11 -47 -13 -15 -2 -38 -9 -49 -15 -27 -14
-74 -10 -149 16 -109 37 -185 82 -185 110 0 5 -16 17 -35 28 -19 10 -35 25
-35 32 0 8 -6 26 -14 40 -8 15 -28 55 -44 89 -32 66 -66 116 -74 107 -3 -2
-13 8 -23 23 -16 25 -16 26 -2 14 37 -30 25 -2 -18 44 -25 27 -45 52 -45 56 0
14 -135 109 -139 97 -2 -6 5 -15 14 -21 10 -5 35 -25 54 -44 29 -28 31 -32 11
-22 -14 7 -39 23 -56 36 -17 12 -37 23 -44 23 -19 0 55 -63 122 -106 32 -19
58 -40 58 -46 0 -17 54 -88 67 -88 7 0 19 -15 27 -32 7 -18 31 -69 52 -113 21
-44 38 -94 38 -112 1 -17 6 -31 11 -30 6 1 9 -6 9 -15 -1 -10 2 -18 7 -18 5 0
9 -7 9 -16 0 -9 27 -42 59 -74 56 -55 63 -59 131 -70 129 -22 293 -14 380 17
47 17 219 125 282 178 62 52 79 82 104 182 13 53 28 101 34 107 5 5 9 33 8 60
l-1 51 -7 -50 c-4 -27 -8 -48 -9 -45 -7 16 -6 177 1 186 5 7 3 18 -6 26 -8 8
-18 30 -24 50 -5 19 -26 57 -46 84 -19 27 -42 58 -50 69 -8 11 -15 16 -16 12z
m90 -520 c0 -7 -20 -39 -44 -72 -25 -32 -44 -61 -44 -64 2 -21 -8 -31 -52 -60
-27 -18 -50 -35 -50 -38 0 -3 10 2 23 11 37 27 60 39 53 28 -8 -14 -97 -72
-110 -72 -5 0 -1 7 10 15 10 9 -10 0 -46 -20 -40 -22 -64 -41 -63 -51 0 -8 -1
-13 -4 -10 -3 3 -20 -1 -38 -8 -97 -41 -277 -52 -372 -24 -50 15 -66 25 -78
49 -9 16 -20 27 -25 24 -14 -8 -69 44 -90 86 -29 56 -25 57 21 5 23 -25 60
-58 83 -71 84 -49 260 -98 268 -75 3 11 74 28 159 39 31 3 63 14 72 23 9 9 33
26 54 39 60 36 141 108 164 146 12 19 24 32 27 28 7 -7 52 35 52 50 0 10 19
35 27 35 2 0 3 -6 3 -13z"/>
<path d="M1225 1321 c3 -6 12 -11 19 -11 8 0 19 -7 26 -16 13 -14 80 -47 86
-41 5 5 -60 46 -99 62 -22 9 -36 11 -32 6z"/>
<path d="M898 1312 c-16 -2 -28 -8 -28 -13 0 -5 -8 -9 -17 -9 -22 0 -68 -28
-109 -67 -17 -16 -44 -39 -59 -51 -22 -17 -29 -32 -31 -65 -1 -23 -3 -46 -3
-51 -1 -4 -7 -6 -14 -3 -10 3 -13 -11 -14 -57 -2 -64 13 -130 27 -121 12 7 41
-36 33 -48 -3 -6 -1 -7 5 -3 6 3 14 1 18 -5 13 -22 94 -51 125 -44 16 4 27 11
23 16 -3 5 -15 7 -26 3 -20 -6 -88 23 -88 38 0 5 -6 8 -14 8 -21 0 -73 110
-82 173 -6 43 9 32 45 -35 19 -35 45 -78 59 -95 31 -42 118 -98 97 -62 -5 7 4
8 27 5 48 -8 151 7 156 22 3 10 -12 12 -72 7 -99 -8 -176 13 -207 57 -34 47
-68 139 -69 181 0 32 6 44 37 70 20 18 44 39 54 48 25 24 100 66 131 73 32 7
183 -18 240 -41 130 -52 231 -137 291 -245 21 -38 40 -68 42 -68 10 0 0 52
-12 62 -7 6 -13 17 -13 24 0 8 -4 14 -10 14 -5 0 -10 7 -10 15 0 9 -6 23 -12
31 -30 35 -88 94 -93 94 -4 0 -21 11 -38 24 -49 37 -152 86 -180 86 -14 0 -29
5 -32 10 -3 6 -24 10 -46 10 -30 0 -38 3 -33 13 5 7 0 6 -11 -3 -10 -8 -21
-13 -24 -12 -23 14 -39 17 -63 14z"/>
<path d="M613 1294 c-91 -39 -147 -309 -95 -456 11 -31 34 -77 52 -103 32 -46
122 -125 143 -125 7 0 -1 9 -18 20 -16 11 -30 28 -30 37 -1 27 -14 43 -36 43
-13 0 -19 7 -19 22 0 12 -3 18 -7 15 -13 -13 -60 88 -74 158 -10 51 -7 96 13
175 16 64 26 70 22 13 l-4 -48 16 60 c9 33 15 80 15 104 -1 39 3 49 31 73 37
31 36 32 -9 12z m-23 -103 c0 -17 -12 -41 -21 -41 -5 0 -8 11 -7 25 2 23 28
37 28 16z"/>
<path d="M862 1231 c-28 -14 -66 -39 -84 -56 -26 -25 -29 -31 -14 -33 10 -2
28 5 39 16 47 42 155 64 230 46 18 -4 27 -2 27 6 0 8 9 10 28 6 24 -6 25 -5 7
6 -20 12 -136 38 -165 37 -8 -1 -39 -13 -68 -28z"/>
<path d="M2032 1213 c35 -37 56 -107 38 -128 -7 -8 -8 -15 -2 -15 16 0 24 -33
10 -42 -22 -13 -30 -9 -23 13 5 16 4 19 -5 14 -10 -6 -12 1 -7 29 5 33 2 42
-24 67 -31 31 -88 64 -96 56 -2 -3 9 -13 25 -22 30 -18 82 -89 82 -111 0 -22
-28 -42 -53 -37 -17 3 -34 -5 -65 -34 -22 -21 -63 -58 -91 -83 -50 -44 -77
-92 -64 -113 3 -6 1 -7 -5 -3 -14 9 -15 2 -3 -22 5 -9 16 -33 24 -54 25 -57
70 -84 154 -92 56 -5 75 -3 87 9 8 8 21 13 28 10 8 -3 25 -2 38 3 20 7 12 12
-53 27 -123 29 -180 102 -144 186 15 34 15 34 10 -27 -4 -40 -2 -64 6 -68 7
-5 11 7 11 38 0 89 58 156 135 156 21 0 30 -8 45 -42 11 -24 20 -51 20 -62 0
-15 3 -16 14 -7 42 35 59 142 40 241 -8 43 -9 40 -15 -48 -7 -106 -18 -128
-48 -91 l-20 24 25 26 c28 30 29 38 8 109 -10 33 -29 67 -49 87 -40 40 -70 45
-33 6z m-62 -228 c-7 -8 -17 -15 -22 -15 -14 0 -38 -27 -31 -34 4 -3 0 -6 -8
-6 -8 0 -24 -19 -36 -42 -29 -56 -19 -130 21 -164 14 -13 26 -28 26 -34 0 -5
5 -11 10 -11 6 -1 14 -2 19 -3 5 0 13 -5 18 -10 5 -5 3 -6 -4 -2 -7 4 -13 2
-13 -4 0 -8 -7 -9 -17 -5 -10 4 -31 8 -48 10 -16 2 -31 8 -33 14 -2 6 -10 11
-18 11 -20 0 -55 81 -52 121 2 32 6 36 133 155 33 31 56 45 64 38 2 -2 -2 -10
-9 -19z"/>
<path d="M1783 956 c-23 -26 -39 -66 -26 -66 4 0 16 18 26 40 10 22 23 38 27
35 5 -3 11 -1 15 5 13 21 -22 9 -42 -14z"/>
<path d="M588 950 c-7 -21 3 -70 13 -64 5 3 9 0 9 -7 0 -7 2 -10 5 -8 2 3 -2
25 -9 49 -7 24 -15 38 -18 30z"/>
<path d="M1588 910 c6 -14 21 -51 35 -82 14 -31 23 -59 20 -62 -7 -7 56 -96
73 -103 8 -3 29 -19 46 -35 27 -25 38 -29 76 -26 61 4 64 23 4 24 -42 1 -52 6
-99 50 -37 35 -64 76 -98 144 -45 92 -77 143 -57 90z"/>
<path d="M1460 828 c0 -15 46 -126 63 -153 22 -34 20 -28 -23 75 -29 70 -40
91 -40 78z"/>
<path d="M916 789 c8 -9 40 -22 72 -29 31 -7 62 -16 67 -20 6 -4 55 -10 111
-12 89 -3 103 -6 125 -27 17 -17 19 -22 7 -18 -10 4 -18 2 -18 -3 0 -11 41
-35 53 -32 5 1 6 -2 3 -7 -5 -8 8 -18 27 -19 12 -1 57 -51 57 -63 0 -20 -31
-8 -40 16 -5 14 -12 25 -14 25 -3 0 -3 -7 0 -15 11 -29 -24 -15 -37 14 -8 17
-25 36 -39 43 -14 7 -29 17 -33 23 -5 6 -7 4 -4 -6 4 -13 -6 -15 -67 -16 -39
0 -138 -3 -219 -5 -81 -3 -150 -1 -153 4 -3 4 -10 6 -15 3 -5 -4 -9 -1 -9 4 0
6 -5 11 -12 11 -6 0 -19 6 -27 13 -24 19 -71 38 -71 28 0 -19 125 -95 157 -95
18 -1 33 -3 33 -6 0 -6 191 -2 209 5 7 3 48 8 90 11 70 5 78 4 110 -20 19 -14
43 -38 53 -53 13 -21 18 -23 18 -10 0 30 14 19 55 -43 22 -33 43 -60 47 -60 3
0 14 -24 23 -52 20 -60 40 -90 30 -43 -4 17 -23 65 -43 108 -19 42 -32 80 -28
84 10 11 22 -8 41 -65 9 -29 19 -51 22 -49 2 3 -8 40 -22 83 -21 64 -37 90
-82 139 -31 33 -59 59 -63 58 -4 -1 -7 5 -6 14 2 31 -87 56 -181 51 -60 -3
-84 -1 -87 8 -3 7 -27 15 -53 17 -26 3 -3 3 52 1 55 -2 111 -6 125 -9 l25 -6
-25 12 c-14 7 -82 15 -152 18 -115 5 -125 5 -112 -10z"/>
<path d="M2262 794 c-12 -8 -22 -20 -22 -26 0 -24 -50 -75 -101 -103 -30 -16
-83 -37 -119 -46 -57 -15 -61 -17 -30 -19 19 -1 40 -1 45 0 6 2 20 3 33 3 12
1 22 5 22 9 0 4 7 8 15 8 18 0 80 35 104 58 31 31 86 106 71 97 -13 -8 -13 -7
-1 8 19 24 10 30 -17 11z"/>
</g>
</svg>
